<svg height="512pt" viewBox="0 0 512.00008 512" width="512pt" xmlns="http://www.w3.org/2000/svg"><path d="m471.269531 10c-10.789062 0-20.246093 5.546875-25.792969 13.976562-5.550781-8.429687-14.902343-13.976562-25.695312-13.976562-18.085938 0-30.726562 14.179688-30.726562 34.527344 0 25.179687 21.785156 34.710937 47.378906 57.214844l9.042968 8.53125 14.285157-12.023438c23.429687-20.449219 42.238281-30.496094 42.238281-53.722656 0-20.347656-12.640625-34.527344-30.730469-34.527344zm0 0" fill="#ff728b"/><path d="m445.476562 120.273438c-2.472656 0-4.941406-.914063-6.863281-2.726563l-8.917969-8.40625c-5.714843-5.023437-11.199218-9.34375-16.503906-13.527344-18.316406-14.449219-34.140625-26.925781-34.140625-51.085937 0-25.800782 17.128907-44.527344 40.730469-44.527344 9.492188 0 18.515625 3.316406 25.699219 9.199219 7.199219-5.882813 16.253906-9.199219 25.789062-9.199219 23.601563 0 40.730469 18.726562 40.730469 44.527344 0 23.597656-15.421875 36.238281-33.28125 50.878906-3.980469 3.265625-8.097656 6.640625-12.382812 10.378906-.042969.039063-.089844.078125-.136719.117188l-14.285157 12.023437c-1.863281 1.570313-4.152343 2.347657-6.4375 2.347657zm14.285157-22.023438h.007812zm-39.980469-78.25c-12.59375 0-20.726562 9.628906-20.726562 24.527344 0 13.847656 8.609374 21.253906 26.523437 35.378906 5.292969 4.175781 11.292969 8.90625 17.457031 14.328125.089844.078125.175782.15625.257813.234375l2.5625 2.417969 7.398437-6.230469c4.492188-3.917969 8.710938-7.375 12.789063-10.71875 17.53125-14.371094 25.957031-21.878906 25.957031-35.410156 0-14.898438-8.136719-24.527344-20.730469-24.527344-7.015625 0-13.535156 3.542969-17.445312 9.476562-1.847657 2.808594-4.984375 4.5-8.351563 4.5-3.363281 0-6.5-1.691406-8.351562-4.5-3.964844-6.023437-10.285156-9.476562-17.339844-9.476562zm0 0"/><path d="m144.3125 412.460938-4.089844 46.785156h196.433594l-4.09375-45.785156" fill="#ffbd86"/><path d="m320.207031 112.28125c22.542969-14.390625 46.339844-14.667969 69.117188-.660156 53.960937 33.179687 131.929687 99.890625 21.859375 162.6875l-23.570313 13.589844" fill="#fed2a4"/><path d="m155.671875 112.28125c-22.542969-14.390625-45.339844-14.667969-68.121094-.660156-53.960937 33.179687-131.929687 99.890625-21.859375 162.6875l23.570313 13.589844" fill="#fed2a4"/><path d="m389.085938 345.230469c-10.582032 63.347656-88.425782 88.078125-134.835938 43.6875-9.035156-8.65625-15.832031-17.828125-15.832031-25.851563 0 5.757813-6.707031 14.121094-15.667969 22.726563-53.851562 51.667969-143.941406 8.480469-135.65625-65.691407.089844-.859374.199219-1.707031.316406-2.566406l15.273438-109.175781c4.730468-33.851563 21.578125-63.367187 45.785156-84.425781 8.8125-7.664063 18.601562-14.210938 29.144531-19.429688 8.28125-4.113281 17.035157-7.394531 26.140625-9.78125 11.097656-2.894531 22.726563-4.429687 34.664063-4.429687 21.75 0 42.441406 5.097656 60.84375 14.238281 39.457031 19.5625 68.441406 57.667969 74.890625 103.828125l15.269531 109.175781c1.332031 9.484375 1.148437 18.785156-.335937 27.695313zm0 0" fill="#ffbd86"/><path d="m254.25 388.917969c-9.035156-8.652344-15.832031-17.824219-15.832031-25.851563 0 5.761719-6.707031 14.125-15.667969 22.726563-7.128906 6.835937-14.886719 12.011719-22.96875 15.675781 5.632812 15.910156 20.816406 27.308594 38.65625 27.308594 16.898438 0 31.40625-10.222656 37.683594-24.816406-7.75-3.625-15.140625-8.605469-21.871094-15.042969zm0 0" fill="#ff728b"/><path d="m373.449219 213.878906c-.648438 0-1.308594-.070312-1.949219-.199218-.640625-.121094-1.269531-.320313-1.871094-.570313-.609375-.242187-1.1875-.550781-1.730468-.910156-.546876-.371094-1.058594-.789063-1.519532-1.25-.457031-.460938-.878906-.96875-1.238281-1.519531-.359375-.539063-.671875-1.121094-.921875-1.722657-.25-.609375-.4375-1.238281-.570312-1.867187-.128907-.652344-.199219-1.300782-.199219-1.960938 0-.648437.070312-1.3125.199219-1.949218.132812-.640626.320312-1.273438.570312-1.871094.25-.609375.5625-1.191406.921875-1.730469.359375-.550781.78125-1.058594 1.238281-1.519531.460938-.460938.972656-.878906 1.519532-1.238282.542968-.359374 1.121093-.671874 1.730468-.921874.601563-.25 1.230469-.4375 1.871094-.570313 1.289062-.257813 2.609375-.257813 3.898438 0 .640624.132813 1.273437.320313 1.882812.570313.597656.25 1.179688.5625 1.71875.921874.550781.359376 1.058594.777344 1.519531 1.238282.460938.460937.878907.96875 1.25 1.519531.351563.539063.660157 1.121094.910157 1.730469.25.601562.449218 1.230468.570312 1.871094.128906.640624.199219 1.300781.199219 1.949218 0 .660156-.070313 1.308594-.199219 1.960938-.121094.628906-.320312 1.257812-.570312 1.867187-.25.601563-.558594 1.183594-.910157 1.722657-.371093.550781-.789062 1.058593-1.25 1.519531-1.859375 1.859375-4.441406 2.929687-7.070312 2.929687zm0 0"/><path d="m226.351562 354.027344-13.394531-23.203125c-7.214843-12.492188 1.800781-28.105469 16.226563-28.105469h18.511718c14.421876 0 23.4375 15.613281 16.226563 28.105469l-13.394531 23.203125c-5.375 9.300781-18.804688 9.300781-24.175782 0zm0 0" fill="#f7afd1"/><path d="m326.253906 259.097656c0-14.449218-7.53125-26.164062-16.824218-26.164062-9.292969 0-16.828126 11.714844-16.828126 26.164062 0 14.453125 7.535157 26.164063 16.828126 26.164063 9.292968 0 16.824218-11.710938 16.824218-26.164063zm0 0" fill="#d1e7f8"/><path d="m309.429688 295.261719c-15.042969 0-26.828126-15.882813-26.828126-36.164063 0-20.277344 11.785157-36.164062 26.828126-36.164062 15.039062 0 26.824218 15.886718 26.824218 36.164062 0 20.28125-11.785156 36.164063-26.824218 36.164063zm0-52.328125c-2.085938 0-6.828126 6.109375-6.828126 16.164062 0 10.058594 4.742188 16.164063 6.828126 16.164063 2.082031 0 6.824218-6.105469 6.824218-16.164063 0-10.054687-4.742187-16.164062-6.824218-16.164062zm0 0"/><path d="m184.273438 259.097656c0-14.449218-7.53125-26.164062-16.824219-26.164062s-16.824219 11.714844-16.824219 26.164062c0 14.453125 7.53125 26.164063 16.824219 26.164063s16.824219-11.710938 16.824219-26.164063zm0 0" fill="#d1e7f8"/><path d="m167.449219 295.261719c-15.042969 0-26.828125-15.882813-26.828125-36.164063 0-20.277344 11.785156-36.164062 26.828125-36.164062 15.039062 0 26.824219 15.886718 26.824219 36.164062 0 20.28125-11.78125 36.164063-26.824219 36.164063zm0-52.328125c-2.085938 0-6.828125 6.109375-6.828125 16.164062 0 10.058594 4.742187 16.164063 6.828125 16.164063 2.082031 0 6.824219-6.105469 6.824219-16.164063 0-10.054687-4.742188-16.164062-6.824219-16.164062zm0 0"/><path d="m299.265625 104.535156c-1.367187 32.414063-28.078125 58.265625-60.828125 58.265625-32.757812 0-59.476562-25.871093-60.824219-58.296875 8.285157-4.113281 17.039063-7.394531 26.140625-9.78125 11.101563-2.894531 22.726563-4.429687 34.667969-4.429687 21.746094 0 42.4375 5.097656 60.84375 14.242187zm0 0" fill="#fed2a4"/><path d="m99.800781 459.246094h277.273438v41.789062h-277.273438zm0 0" fill="#57a4ff"/><path d="m394.566406 103.101562c-25.601562-15.742187-52.535156-15.839843-78.011718-.324218-4.140626-2.601563-8.417969-5.003906-12.816407-7.1875-.007812-.003906-.015625-.007813-.023437-.011719-20.421875-10.144531-42.390625-15.285156-65.296875-15.285156-12.574219 0-25.089844 1.597656-37.199219 4.757812-9.703125 2.542969-19.140625 6.074219-28.050781 10.496094-.015625.007813-.03125.015625-.046875.023437-4.566406 2.265626-9.015625 4.769532-13.324219 7.496094-25.296875-15.605468-52.058594-15.601562-77.484375.035156-37.933594 23.328126-83.003906 60.101563-82.3046875 102.820313.4687495 28.417969 20.8984375 54.351563 60.6914065 77.050781l19.851562 11.445313-3.042969 21.738281c-.132812.972656-.257812 1.933594-.351562 2.835938-2.179688 19.515624 1.707031 38.414062 11.242188 54.65625 8.820312 15.019531 21.992187 27.164062 38.097656 35.117187 2.570312 1.269531 5.175781 2.410156 7.800781 3.425781l-3.238281 37.054688h-31.257813c-5.523437 0-10 4.476562-10 10v41.789062c0 5.523438 4.476563 10 10 10h277.273438c5.523437 0 10-4.476562 10-10v-41.789062c0-5.523438-4.476563-10-10-10h-31.273438l-3.027343-33.867188c29.992187-11.378906 50.867187-36.71875 56.175781-68.5 1.6875-10.125 1.816406-20.460937.378906-30.726562l-3.039063-21.714844 19.847657-11.441406c39.832031-22.726563 60.265625-48.65625 60.730469-77.074219.703124-42.722656-44.367188-79.492187-82.300782-102.820313zm-188.289062 1.296876c10.453125-2.726563 21.265625-4.105469 32.140625-4.105469 17.480469 0 34.324219 3.464843 50.171875 10.308593-4.109375 24.125-25.007813 42.199219-50.152344 42.199219-25.160156 0-46.058594-18.082031-50.152344-42.21875 5.8125-2.496093 11.84375-4.570312 17.992188-6.183593zm-135.628906 161.226562c-33.261719-18.976562-50.300782-39.175781-50.640626-60.03125-.578124-35.058594 45.351563-68.585938 72.78125-85.453125 16.652344-10.242187 32.867188-11.554687 49.328126-3.933594-.070313.0625-.140626.125-.210938.1875-26.769531 23.289063-44.214844 55.457031-49.125 90.582031l-9.242188 66.078126zm296.425781 225.410156h-257.273438v-21.789062h257.273438zm-215.941407-41.789062 2.789063-31.851563c13.886719 2.074219 27.925781.867188 41.105469-3.460937 8.691406 15.519531 24.648437 24.84375 43.410156 24.84375 17.761719 0 32.917969-8.234375 41.9375-22.40625 9.558594 3.320312 19.628906 5.027344 29.800781 5.027344 4.316407 0 8.652344-.304688 12.976563-.929688l2.570312 28.777344zm90.730469-100.21875c-.992187 1.71875-2.570312 1.976562-3.425781 1.976562-.851562 0-2.429688-.257812-3.425781-1.976562l-13.394531-23.203125c-2.277344-3.941407-.757813-7.421875 0-8.734375.757812-1.3125 3.011718-4.371094 7.566406-4.371094h18.511718c4.554688 0 6.808594 3.058594 7.566407 4.371094.757812 1.3125 2.277343 4.792968 0 8.734375zm-4.546875 36.078125c2.710938 3.558593 6.046875 7.230469 10.019532 11.039062 4.578124 4.375 9.527343 8.207031 14.765624 11.476563-5.460937 7.171875-13.761718 11.15625-23.664062 11.15625-10.804688 0-19.792969-4.835938-25.125-13.226563 5.796875-3.492187 11.289062-7.675781 16.359375-12.542969 2.902344-2.785156 5.445313-5.410156 7.644531-7.902343zm219.554688-179.511719c-.34375 20.855469-17.382813 41.054688-50.683594 60.054688l-12.886719 7.425781-4.835937-34.59375c-.765625-5.46875-5.820313-9.285157-11.289063-8.519531-5.472656.765624-9.285156 5.820312-8.519531 11.289062l10.863281 77.671875c1.15625 8.253906 1.054688 16.550781-.296875 24.664063-4.285156 25.644531-21.667968 45.890624-46.503906 54.148437-25.453125 8.464844-52.203125 2.46875-71.550781-16.039063-6.335938-6.070312-9.542969-10.546874-11.152344-13.632812 3.746094-2.058594 6.917969-5.140625 9.167969-9.039062l13.398437-23.199219c5.195313-8.996094 5.195313-19.738281 0-28.734375-5.195312-9-14.5-14.371094-24.890625-14.371094h-18.507812c-10.390625 0-19.695313 5.371094-24.890625 14.371094-5.191407 8.996094-5.191407 19.738281.003906 28.734375l13.394531 23.199219c2.046875 3.546874 4.859375 6.417968 8.171875 8.457031-1.800781 2.507812-4.859375 6.125-10.039062 11.09375-26.375 25.3125-58.863281 22.925781-80.472657 12.257812-21.121093-10.429687-42.277343-34.195312-38.3125-69.691406.078126-.742187.171876-1.480469.277344-2.21875l15.269532-109.179687c4.242187-30.347657 19.316406-58.140626 42.445312-78.261719 4.699219-4.089844 9.6875-7.820313 14.914062-11.167969 8.074219 30.410156 35.683594 52.488281 68.492188 52.488281 32.785156 0 60.390625-22.0625 68.480469-52.453125 19.980469 12.816406 36.183593 31.121094 46.363281 52.628906 1.707031 3.609376 5.300781 5.722657 9.042969 5.722657 1.4375 0 2.890625-.308594 4.273437-.960938 4.992188-2.363281 7.121094-8.324219 4.757813-13.316406-8.800781-18.597656-21.488281-35.121094-36.980469-48.476563 16.5-7.367187 33.183594-5.972656 49.710938 4.195313 27.433593 16.863281 73.359374 50.394531 72.785156 85.453125zm0 0"/></svg>